# AST/ASF file generated using VICON BodyLanguage
# -----------------------------------------------
:version 1.10
:name VICON
:units
  mass 1.0
  length 0.45
  angle deg
:documentation
   .ast/.asf automatically generated from VICON data using
   VICON BodyBuilder and BodyLanguage model FoxedUp or BRILLIANT.MOD
:root
   order TX TY TZ RX RY RZ
   axis XYZ
   position 0 0 0  
   orientation 0 0 0 
:bonedata
  begin
     id 1 
     name lhipjoint
     direction 0.682418 -0.694059 0.22932 
     length 2.25561 
     axis 0 0 0  XYZ
  end
  begin
     id 2 
     name lfemur
     direction 0.34202 -0.939693 0  
     length 6.96448  
     axis 0 0 20  XYZ
    dof rx ry rz
    limits (-160.0 20.0)
           (-70.0 70.0)
           (-60.0 70.0)
  end
  begin
     id 3 
     name ltibia
     direction 0.34202 -0.939693 0   
     length 6.88553   
     axis 0 0 20   XYZ
    dof rx
    limits (-10.0 170.0)
  end
  begin
     id 4 
     name lfoot
     direction 0.0723587 -0.198804 0.977364   
     length 1.88518   
     axis -90 7.62852e-016 20   XYZ
    dof rx rz
    limits (-45.0 90.0)
           (-70.0 20.0)
  end
  begin
     id 5 
     name ltoes
     direction 1.53558e-011 -4.21962e-011 1   
     length 0.952124   
     axis -90 7.62852e-016 20   XYZ
    dof rx
    limits (-90.0 20.0)
  end
  begin
     id 6 
     name rhipjoint
     direction -0.657603 -0.71533 0.236348   
     length 2.18854  
     axis 0 0 0  XYZ 
  end
  begin
     id 7 
     name rfemur
     direction -0.34202 -0.939693 0   
     length 6.86686   
     axis 0 0 -20   XYZ
    dof rx ry rz
    limits (-160.0 20.0)
           (-70.0 70.0)
           (-70.0 60.0)
  end
  begin
     id 8 
     name rtibia
     direction -0.34202 -0.939693 0   
     length 6.59503   
     axis 0 0 -20   XYZ
    dof rx
    limits (-10.0 170.0)
 end
 begin
     id 9 
     name rfoot
     direction -0.101977 -0.280179 0.954516   
     length 1.93723  
     axis -90 -7.62852e-016 -20   XYZ
    dof rx rz
    limits (-45.0 90.0)
           (-20.0 70.0)
  end
  begin
     id 10 
     name rtoes
     direction -1.53564e-011 -4.21897e-011 1   
     length 0.970315   
     axis -90 -7.62852e-016 -20   XYZ
    dof rx
    limits (-90.0 20.0)
  end
  begin
     id 11 
     name lowerback
     direction -0.0339559 0.999421 -0.00235966   
     length 1.88543   
     axis 0 0 0   XYZ
    dof rx ry rz
    limits (-20.0 45.0)
           (-30.0 30.0)
           (-30.0 30.0)
  end
  begin
     id 12 
     name upperback
     direction 0.00401003 0.999739 0.0224689   
     length 1.8856   
     axis 0 0 0   XYZ
    dof rx ry rz
    limits (-20.0 45.0)
           (-30.0 30.0)
           (-30.0 30.0)
  end
  begin
     id 13 
     name thorax
     direction 0.0198619 0.999546 0.0226536   
     length 1.88352   
     axis 0 0 0   XYZ
    dof rx ry rz
    limits (-20.0 45.0)
           (-30.0 30.0)
           (-30.0 30.0)
  end
  begin
     id 14 
     name lowerneck
     direction -0.0461848 0.998632 0.0245198   
     length 1.34895   
     axis 0 0 0   XYZ
    dof rx ry rz
    limits (-20.0 45.0)
           (-30.0 30.0)
           (-30.0 30.0)
  end
  begin
     id 15 
     name upperneck
     direction -0.0180627 0.994724 -0.100984   
     length 1.35214   
     axis 0 0 0   XYZ
    dof rx ry rz
    limits (-20.0 45.0)
           (-30.0 30.0)
           (-30.0 30.0)
  end
  begin
     id 16
     name head
     direction -0.00374772 0.999293 -0.037403  
     length 1.3568  
     axis 0 0 0   XYZ
    dof rx ry rz
    limits (-20.0 45.0)
           (-30.0 30.0)
           (-30.0 30.0)
  end
  begin
     id 17 
     name lclavicle
     direction 0.971773 0.191119 0.138311  
     length 2.84954  
     axis 0 0 0   XYZ
    dof ry rz
    limits (-20.0 10.0)
           (0.0 20.0)
  end
  begin
     id 18 
     name lhumerus
     direction 1 -4.4897e-011 -2.43761e-027   
     length 4.40919   
     axis 180 -30 -90   XYZ
    dof rx ry rz
    limits (-60.0 90.0)
           (-90.0 90.0)
           (-90.0 90.0)
  end
  begin
     id 19
     name lradius
     direction 1 -4.4896e-011 -9.1621e-027   
     length 3.03857   
     axis 180 -30 -90   XYZ
    dof rx
    limits (-10.0 170.0)
  end
  begin
     id 20
     name lwrist
     direction 1 -4.4896e-011 -1.41363e-026   
     length 1.51928   
     axis 1.07133e-014 90 90   XYZ
    dof ry
    limits (-180.0 0.0)
 end
  begin
     id 21 
     name lhand
     direction 1 -4.48978e-011 -2.82725e-026   
     length 0.523208   
     axis 1.80403e-014 90 90   XYZ
    dof rx rz
    limits (-90.0 90.0)
           (-45.0 45.0)
  end
  begin
     id 22 
     name lfingers
     direction 1 -4.48977e-011 -5.6545e-026   
     length 0.421824   
     axis 3.60806e-014 90 90   XYZ
    dof rx
    limits (0.0 90.0)
  end
  begin
     id 23
     name lthumb
     direction 0.707107 -6.34962e-011 0.707107   
     length 0.605657   
     axis -90 45 2.85299e-015   XYZ
    dof rx rz
    limits (-45.0 45.0)
           (-45.0 45.0)
  end
  begin
     id 24 
     name rclavicle
     direction -0.957247 0.24311 0.156766   
     length 3.12406  
     axis 0 0 0   XYZ 
    dof ry rz
    limits (-10.0 20.0)
           (-20.0 0.0)
  end
  begin
     id 25 
     name rhumerus
     direction -1 -4.48964e-011 -1.70632e-027  
     length 4.61969   
     axis 180 30 90   XYZ
    dof rx ry rz
    limits (-90.0 60.0)
           (-90.0 90.0)
           (-90.0 90.0)
  end
  begin
     id 26 
     name rradius
     direction -1 -4.48966e-011 -6.60395e-027   
     length 3.09382   
     axis 180 30 90   XYZ
    dof rx
    limits (-10.0 170.0)
  end
  begin
     id 27 
     name rwrist
     direction -1 -4.48963e-011 -1.41363e-026   
     length 1.54691   
     axis 1.07133e-014 -90 -90   XYZ
    dof ry
    limits (-180.0 0.0)
  end
  begin
     id 28
     name rhand
     direction -1 -4.49013e-011 -2.82725e-026   
     length 0.500896   
     axis 1.80403e-014 -90 -90   XYZ
    dof rx rz
    limits (-90.0 90.0)
           (-45.0 45.0)
  end
  begin
     id 29
     name rfingers
     direction -1 -4.48902e-011 -5.6545e-026   
     length 0.403835   
     axis 3.60806e-014 -90 -90   XYZ
    dof rx
    limits (0.0 90.0)
  end
  begin
     id 30
     name rthumb
     direction -0.707107 -6.34953e-011 0.707107   
     length 0.579829   
     axis -90 -45 -2.85299e-015   XYZ
    dof rx rz
    limits (-45.0 45.0)
           (-45.0 45.0)
  end
:hierarchy
  begin
    root lhipjoint rhipjoint lowerback
    lhipjoint lfemur
    lfemur ltibia
    ltibia lfoot
    lfoot ltoes
    rhipjoint rfemur
    rfemur rtibia
    rtibia rfoot
    rfoot rtoes
    lowerback upperback
    upperback thorax
    thorax lowerneck lclavicle rclavicle
    lowerneck upperneck
    upperneck head
    lclavicle lhumerus
    lhumerus lradius
    lradius lwrist
    lwrist lhand lthumb
    lhand lfingers
    rclavicle rhumerus
    rhumerus rradius
    rradius rwrist
    rwrist rhand rthumb
    rhand rfingers
  end

#!OML:ASF E:\madness\Project 1\Capture day 1\Session 1\Female1.ASF
:FULLY-SPECIFIED
:DEGREES
148
root 15.2333 16.043 -3.08558 -180.105 -77.8419 189.919
lowerback 9.64067 2.78875 -7.41288
upperback 1.37252 2.48633 -4.86935
thorax -4.08589 1.21049 -1.25242
lowerneck -0.677094 13.467 6.25282
upperneck 22.9585 18.6657 -7.08092
head 8.54421 8.4818 -1.84549
rclavicle 1.66979e-014 -4.45278e-014
rhumerus -52.9024 -33.0651 7.81501
rradius 115.189
rwrist -22.1498
rhand 5.34563 -42.3371
rfingers 7.12502
rthumb 30.6996 -69.7954
lclavicle 1.66979e-014 -4.45278e-014
lhumerus -39.7654 3.68507 35.9417
lradius 117.795
lwrist 0.715737
lhand -23.5742 -10.0332
lfingers 7.12502
lthumb 2.88859 19.927
rfemur -15.8043 8.28523 25.9693
rtibia 22.9517
rfoot -15.5697 -7.02161
rtoes 6.47178
lfemur -48.2723 -20.6776 3.3818
ltibia 60.413
lfoot 5.42338 4.52848
ltoes 0.124116
149
root 15.2742 16.0579 -3.09459 -179.215 -76.8009 188.958
lowerback 9.80126 3.09079 -7.56494
upperback 1.33815 2.82541 -5.04959
thorax -4.22267 1.37542 -1.41519
lowerneck -0.789817 13.5855 6.10007
upperneck 22.7382 18.8097 -6.96924
head 8.47244 8.55656 -1.76917
rclavicle 2.06736e-014 -6.36111e-014
rhumerus -52.5765 -33.0892 7.85457
rradius 115.222
rwrist -22.4655
rhand 5.35747 -42.2411
rfingers 7.12502
rthumb 30.7109 -69.6972
lclavicle 2.06736e-014 -6.36111e-014
lhumerus -40.1961 3.96629 36.0662
lradius 118.337
lwrist 0.616337
lhand -23.027 -10.3472
lfingers 7.12502
lthumb 3.41706 19.6052
rfemur -15.6665 8.43332 25.9129
rtibia 22.3801
rfoot -14.9995 -6.25347
rtoes 7.13883
lfemur -48.9407 -20.4556 3.34701
ltibia 62.436
lfoot 5.40013 4.32622
ltoes -0.788574
150
root 15.319 16.079 -3.10048 -178.438 -75.7423 188.214
lowerback 9.89474 3.34833 -7.68701
upperback 1.30618 3.12033 -5.19087
thorax -4.31783 1.51855 -1.54569
lowerneck -1.22907 13.7756 5.82637
upperneck 22.7512 19.0658 -6.81769
head 8.53008 8.65767 -1.62203
rclavicle -6.20208e-014 6.04305e-014
rhumerus -51.8356 -33.4517 7.74299
rradius 115.301
rwrist -22.5994
rhand 4.86213 -43.0076
rfingers 7.12502
rthumb 30.2385 -70.5514
lclavicle -6.20208e-014 6.04305e-014
lhumerus -40.8763 4.45856 36.1678
lradius 118.925
lwrist 0.597652
lhand -22.9469 -10.6184
lfingers 7.12502
lthumb 3.49442 19.3327
rfemur -15.7093 8.70549 25.8387
rtibia 21.9244
rfoot -14.4645 -5.55622
rtoes 7.7013
lfemur -49.8257 -20.2777 3.45332
ltibia 64.5331
lfoot 5.44152 4.05787
ltoes -0.601809
151
root 15.3621 16.0981 -3.10583 -177.517 -74.7276 187.199
lowerback 10.0794 3.60152 -7.89379
upperback 1.33619 3.38688 -5.3543
thorax -4.40105 1.64505 -1.65344
lowerneck -1.58511 13.8628 5.74322
upperneck 22.7306 19.209 -6.88218
head 8.59478 8.70488 -1.58761
rclavicle 3.73715e-014 -7.4743e-014
rhumerus -51.1514 -33.7568 7.66495
rradius 115.315
rwrist -22.5962
rhand 4.72741 -43.1833
rfingers 7.12502
rthumb 30.1099 -70.7506
lclavicle 3.73715e-014 -7.4743e-014
lhumerus -41.6655 5.03105 36.1684
lradius 119.498
lwrist 0.731781
lhand -22.9869 -10.499
lfingers 7.12502
lthumb 3.45574 19.4527
rfemur -15.6319 9.03076 25.6609
rtibia 21.5198
rfoot -13.9352 -4.92619
rtoes 7.9755
lfemur -50.6888 -20.2912 3.52398
ltibia 66.6826
lfoot 5.28841 3.87696
ltoes 1.98274
152
root 15.3971 16.1113 -3.11085 -176.544 -73.6911 186.094
lowerback 10.2143 3.90662 -8.15604
upperback 1.35756 3.71362 -5.5686
thorax -4.46812 1.79969 -1.79283
lowerneck -1.60767 13.8941 5.91829
upperneck 22.5144 19.2686 -7.0674
head 8.56672 8.74179 -1.66477
rclavicle -3.10104e-014 6.36111e-014
rhumerus -50.5289 -34.0133 7.55442
rradius 115.219
rwrist -22.5082
rhand 5.27755 -42.5864
rfingers 7.12502
rthumb 30.6347 -70.0568
lclavicle -3.10104e-014 6.36111e-014
lhumerus -42.3037 5.55396 36.0162
lradius 119.895
lwrist 0.955506
lhand -22.8449 -10.3351
lfingers 7.12502
lthumb 3.5929 19.6144
rfemur -15.5126 9.24719 25.4305
rtibia 21.1563
rfoot -13.3852 -4.21268
rtoes 7.83706
lfemur -51.4639 -20.2409 3.47662
ltibia 68.8848
lfoot 5.06639 3.50452
ltoes 4.15773
153
root 15.4338 16.1244 -3.11508 -175.78 -72.6348 185.302
lowerback 10.3648 4.22172 -8.4205
upperback 1.24313 4.04417 -5.75364
thorax -4.69026 1.96372 -1.91223
lowerneck -1.43586 14.0114 5.96169
upperneck 22.3043 19.4018 -7.00307
head 8.47221 8.82957 -1.65314
rclavicle -2.38542e-015 3.97569e-014
rhumerus -49.8816 -33.9869 7.42243
rradius 115.161
rwrist -22.3009
rhand 5.64103 -42.4628
rfingers 7.12502
rthumb 30.9812 -69.8679
lclavicle -2.38542e-015 3.97569e-014
lhumerus -43.0089 5.91264 35.6512
lradius 120.148
lwrist 1.25588
lhand -22.8238 -10.2077
lfingers 7.12502
lthumb 3.61329 19.7414
rfemur -15.5533 9.46209 25.2504
rtibia 20.8511
rfoot -12.826 -3.50941
rtoes 7.81523
lfemur -52.3654 -20.0748 3.52922
ltibia 71.0854
lfoot 4.80507 2.83056
ltoes 3.84689
154
root 15.4766 16.1396 -3.11801 -174.869 -71.6567 184.493
lowerback 10.4996 4.53411 -8.6562
upperback 1.1013 4.37016 -5.96699
thorax -4.92924 2.12535 -2.08072
lowerneck -1.29053 14.0696 6.03265
upperneck 21.984 19.4759 -7.06539
head 8.35677 8.88648 -1.69198
rclavicle -7.95139e-015 1.41535e-013
rhumerus -49.5041 -33.8556 7.53361
rradius 115.178
rwrist -22.2013
rhand 5.28137 -42.7737
rfingers 7.12502
rthumb 30.6383 -70.2434
lclavicle -7.95139e-015 1.41535e-013
lhumerus -43.4673 6.27703 35.26
lradius 120.236
lwrist 1.59259
lhand -22.9302 -10.1977
lfingers 7.12502
lthumb 3.5105 19.7531
rfemur -15.786 9.68596 25.0079
rtibia 20.563
rfoot -12.2902 -2.8941
rtoes 7.78639
lfemur -53.5129 -20.0018 3.68469
ltibia 73.2536
lfoot 4.46123 2.3452
ltoes 3.47944
